<svg xmlns="http://www.w3.org/2000/svg" xmlns:xlink="http://www.w3.org/1999/xlink" width="1200" zoomAndPan="magnify" viewBox="0 0 900 299.999988" height="400" preserveAspectRatio="xMidYMid meet" version="1.0"><defs><g/><clipPath id="a24cbaddd6"><path d="M 2 3.765625 L 204 3.765625 L 204 282.777344 L 2 282.777344 Z M 2 3.765625 " clip-rule="nonzero"/></clipPath><clipPath id="354ea96684"><path d="M 85.183594 53 L 99 53 L 99 143 L 85.183594 143 Z M 85.183594 53 " clip-rule="nonzero"/></clipPath><clipPath id="85f94b13c8"><path d="M 101 52.773438 L 121 52.773438 L 121 143.453125 L 101 143.453125 Z M 101 52.773438 " clip-rule="nonzero"/></clipPath><clipPath id="dd3ae63aec"><rect x="0" width="207" y="0" height="286"/></clipPath><clipPath id="03718f970e"><rect x="0" width="628" y="0" height="146"/></clipPath><clipPath id="c5883a5386"><path d="M 3 0.160156 L 32 0.160156 L 32 36 L 3 36 Z M 3 0.160156 " clip-rule="nonzero"/></clipPath><clipPath id="f051c4f1cd"><path d="M 111 0.160156 L 116 0.160156 L 116 36 L 111 36 Z M 111 0.160156 " clip-rule="nonzero"/></clipPath><clipPath id="2e865d67fd"><path d="M 158 0.160156 L 163 0.160156 L 163 36 L 158 36 Z M 158 0.160156 " clip-rule="nonzero"/></clipPath><clipPath id="6e7f93b4c8"><path d="M 167 0.160156 L 172 0.160156 L 172 36 L 167 36 Z M 167 0.160156 " clip-rule="nonzero"/></clipPath><clipPath id="2c79bb4998"><path d="M 287 0.160156 L 310 0.160156 L 310 37 L 287 37 Z M 287 0.160156 " clip-rule="nonzero"/></clipPath><clipPath id="35f1fbcf31"><path d="M 374 0.160156 L 380 0.160156 L 380 36 L 374 36 Z M 374 0.160156 " clip-rule="nonzero"/></clipPath><clipPath id="4ca93186db"><path d="M 448 0.160156 L 454 0.160156 L 454 36 L 448 36 Z M 448 0.160156 " clip-rule="nonzero"/></clipPath><clipPath id="78e2a07816"><rect x="0" width="482" y="0" height="47"/></clipPath></defs><g transform="matrix(1, 0, 0, 1, 17, 6)"><g clip-path="url(#dd3ae63aec)"><g clip-path="url(#a24cbaddd6)"><path fill="#ff7300" d="M 192.335938 58.855469 C 175.949219 26.007812 144.605469 5.386719 108.433594 3.765625 C 104.949219 3.605469 101.386719 3.605469 97.90625 3.765625 C 61.734375 5.386719 30.386719 26.007812 14.003906 58.855469 C -2.933594 92.851562 -0.324219 131.753906 21.046875 162.863281 L 103.167969 282.5 L 185.289062 162.863281 C 206.660156 131.753906 209.273438 92.851562 192.335938 58.855469 Z M 103.167969 177.78125 C 61.691406 177.78125 27.972656 144.0625 27.972656 102.585938 C 27.972656 61.113281 61.691406 27.390625 103.167969 27.390625 C 144.644531 27.390625 178.363281 61.113281 178.363281 102.585938 C 178.363281 144.0625 144.644531 177.78125 103.167969 177.78125 Z M 162.535156 102.585938 C 162.535156 135.316406 135.898438 161.953125 103.167969 161.953125 C 70.4375 161.953125 43.804688 135.316406 43.804688 102.585938 C 43.804688 69.859375 70.4375 43.222656 103.167969 43.222656 C 135.898438 43.222656 162.535156 69.859375 162.535156 102.585938 Z M 162.535156 102.585938 " fill-opacity="1" fill-rule="nonzero"/></g><g clip-path="url(#354ea96684)"><path fill="#ffffff" d="M 97.644531 53.734375 L 97.609375 53.734375 C 97.078125 53.734375 96.648438 71.378906 96.648438 72.039062 L 96.648438 74.425781 C 96.648438 75.007812 96.269531 75.488281 95.800781 75.492188 C 95.332031 75.492188 94.949219 75.019531 94.949219 74.4375 L 94.949219 72.039062 C 94.949219 71.378906 94.519531 53.734375 93.988281 53.734375 C 93.457031 53.734375 93.027344 71.378906 93.027344 72.039062 L 93.027344 74.425781 C 93.027344 75.007812 92.652344 75.488281 92.183594 75.492188 C 91.710938 75.492188 91.332031 75.019531 91.332031 74.4375 L 91.332031 72.039062 C 91.332031 71.378906 90.898438 53.734375 90.371094 53.734375 C 89.839844 53.734375 89.40625 71.378906 89.40625 72.039062 L 89.40625 74.425781 C 89.40625 75.007812 89.03125 75.488281 88.5625 75.492188 C 88.09375 75.492188 87.710938 75.019531 87.710938 74.4375 L 87.710938 72.039062 C 87.710938 71.378906 87.28125 53.734375 86.75 53.734375 L 86.695312 53.734375 C 86.191406 53.734375 85.773438 71.328125 85.738281 71.953125 C 85.316406 79.269531 85.203125 77.878906 85.1875 80.234375 C 85.183594 80.523438 85.21875 80.808594 85.292969 81.078125 C 85.457031 81.679688 85.78125 82.382812 86.289062 82.667969 L 86.9375 83.027344 C 89.113281 84.246094 90.402344 86.59375 90.265625 89.082031 C 89.824219 97.078125 88.9375 112.40625 88.394531 117.742188 C 88.394531 117.742188 86.925781 131.835938 88.394531 138.730469 C 88.902344 141.105469 90.472656 142.292969 92.042969 142.292969 C 93.613281 142.292969 95.183594 141.105469 95.6875 138.730469 C 97.15625 131.835938 95.6875 117.742188 95.6875 117.742188 C 95.144531 112.40625 94.257812 97.078125 93.816406 89.082031 C 93.679688 86.59375 94.972656 84.246094 97.144531 83.027344 L 97.757812 82.683594 C 98.449219 82.300781 98.882812 81.433594 98.863281 80.492188 C 98.863281 80.492188 99.035156 81.277344 98.601562 71.96875 C 98.574219 71.335938 98.152344 53.734375 97.644531 53.734375 " fill-opacity="1" fill-rule="nonzero"/></g><g clip-path="url(#85f94b13c8)"><path fill="#ffffff" d="M 120.808594 70.648438 C 120.179688 61.746094 116.535156 52.769531 111.320312 52.769531 C 106.109375 52.769531 102.460938 61.746094 101.835938 70.648438 C 101.496094 75.480469 103.039062 80.464844 106.125 83.125 L 106.058594 83.125 L 106.082031 83.136719 C 106.175781 83.199219 106.328125 83.304688 106.421875 83.367188 C 106.648438 83.546875 106.886719 83.714844 107.128906 83.871094 C 107.21875 83.925781 107.308594 83.988281 107.386719 84.0625 C 108.84375 85.382812 109.65625 87.320312 109.546875 89.347656 C 109.101562 97.449219 108.21875 112.976562 107.675781 118.386719 C 107.675781 118.386719 107.597656 119.148438 107.496094 120.40625 C 107.292969 122.835938 107.003906 127.140625 107.023438 131.355469 C 107.035156 134.394531 107.203125 137.398438 107.675781 139.648438 C 108.183594 142.054688 109.753906 143.257812 111.324219 143.257812 C 112.890625 143.257812 114.460938 142.054688 114.96875 139.648438 C 115.484375 137.183594 115.640625 133.8125 115.617188 130.480469 C 115.605469 127.195312 115.414062 123.9375 115.246094 121.636719 C 115.097656 119.660156 114.96875 118.386719 114.96875 118.386719 C 114.425781 112.976562 113.542969 97.449219 113.097656 89.347656 C 112.988281 87.320312 113.800781 85.382812 115.257812 84.0625 C 115.335938 83.988281 115.425781 83.925781 115.515625 83.871094 C 115.757812 83.714844 115.992188 83.546875 116.222656 83.367188 C 116.316406 83.304688 116.46875 83.199219 116.5625 83.136719 L 116.585938 83.125 L 116.515625 83.125 C 119.605469 80.464844 121.148438 75.480469 120.808594 70.648438 " fill-opacity="1" fill-rule="nonzero"/></g></g></g><g transform="matrix(1, 0, 0, 1, 234, 76)"><g clip-path="url(#03718f970e)"><g fill="#ffffff" fill-opacity="1"><g transform="translate(1.751556, 113.09836)"><g><path d="M 107.96875 -75.265625 L 85.15625 -75.265625 C 84.75 -78.109375 83.429688 -80.921875 81.203125 -83.703125 C 78.972656 -86.492188 76.132812 -88.773438 72.6875 -90.546875 C 69.238281 -92.328125 65.4375 -93.21875 61.28125 -93.21875 C 51.644531 -93.21875 44.015625 -89.796875 38.390625 -82.953125 C 32.765625 -76.109375 29.953125 -66.453125 29.953125 -53.984375 C 29.953125 -41.816406 32.6875 -32.515625 38.15625 -26.078125 C 43.632812 -19.640625 51.441406 -16.421875 61.578125 -16.421875 C 67.867188 -16.421875 73.472656 -18.5 78.390625 -22.65625 C 83.304688 -26.8125 86.578125 -32.742188 88.203125 -40.453125 L 62.796875 -40.453125 L 62.796875 -58.84375 L 108.421875 -58.84375 L 108.421875 0 L 93.21875 0 L 90.9375 -13.6875 C 85.96875 -7.601562 80.769531 -3.316406 75.34375 -0.828125 C 69.925781 1.648438 63.816406 2.890625 57.015625 2.890625 C 47.390625 2.890625 38.773438 0.582031 31.171875 -4.03125 C 23.566406 -8.644531 17.582031 -15.257812 13.21875 -23.875 C 8.863281 -32.488281 6.6875 -42.578125 6.6875 -54.140625 C 6.6875 -65.390625 8.789062 -75.394531 13 -84.15625 C 17.207031 -92.925781 23.335938 -99.769531 31.390625 -104.6875 C 39.453125 -109.601562 49.0625 -112.0625 60.21875 -112.0625 C 69.039062 -112.0625 76.921875 -110.488281 83.859375 -107.34375 C 90.804688 -104.207031 96.382812 -99.851562 100.59375 -94.28125 C 104.800781 -88.707031 107.257812 -82.367188 107.96875 -75.265625 Z M 107.96875 -75.265625 "/></g></g></g><g fill="#ffffff" fill-opacity="1"><g transform="translate(115.496696, 113.09836)"><g><path d="M 87.890625 -40.453125 C 87.890625 -31.734375 86.164062 -24.179688 82.71875 -17.796875 C 79.269531 -11.410156 74.40625 -6.492188 68.125 -3.046875 C 61.84375 0.398438 54.644531 2.125 46.53125 2.125 C 38.414062 2.125 31.21875 0.398438 24.9375 -3.046875 C 18.65625 -6.492188 13.789062 -11.410156 10.34375 -17.796875 C 6.894531 -24.179688 5.171875 -31.734375 5.171875 -40.453125 C 5.171875 -49.171875 6.914062 -56.75 10.40625 -63.1875 C 13.90625 -69.625 18.796875 -74.539062 25.078125 -77.9375 C 31.367188 -81.332031 38.519531 -83.03125 46.53125 -83.03125 C 54.644531 -83.03125 61.84375 -81.304688 68.125 -77.859375 C 74.40625 -74.410156 79.269531 -69.492188 82.71875 -63.109375 C 86.164062 -56.722656 87.890625 -49.171875 87.890625 -40.453125 Z M 46.53125 -15.8125 C 53.019531 -15.8125 57.882812 -17.960938 61.125 -22.265625 C 64.375 -26.578125 66 -32.640625 66 -40.453125 C 66 -48.253906 64.347656 -54.304688 61.046875 -58.609375 C 57.753906 -62.921875 52.863281 -65.078125 46.375 -65.078125 C 40.195312 -65.078125 35.429688 -62.945312 32.078125 -58.6875 C 28.734375 -54.4375 27.0625 -48.359375 27.0625 -40.453125 C 27.0625 -32.441406 28.707031 -26.332031 32 -22.125 C 35.300781 -17.914062 40.144531 -15.8125 46.53125 -15.8125 Z M 46.53125 -15.8125 "/></g></g></g><g fill="#ffffff" fill-opacity="1"><g transform="translate(203.846861, 113.09836)"><g><path d="M 43.796875 -14.90625 C 46.941406 -14.90625 49.804688 -15.664062 52.390625 -17.1875 C 54.972656 -18.707031 56.671875 -20.882812 57.484375 -23.71875 L 79.375 -23.71875 C 77.039062 -15.507812 72.726562 -9.148438 66.4375 -4.640625 C 60.15625 -0.128906 52.609375 2.125 43.796875 2.125 C 30.410156 2.125 20.347656 -1.570312 13.609375 -8.96875 C 6.867188 -16.375 3.5 -27.375 3.5 -41.96875 C 3.5 -49.976562 4.992188 -57.070312 7.984375 -63.25 C 10.972656 -69.4375 15.351562 -74.28125 21.125 -77.78125 C 26.90625 -81.28125 33.90625 -83.03125 42.125 -83.03125 C 53.675781 -83.03125 62.921875 -79.328125 69.859375 -71.921875 C 76.804688 -64.523438 80.28125 -53.320312 80.28125 -38.3125 L 80.28125 -34.671875 L 24.78125 -34.671875 C 25.488281 -21.492188 31.828125 -14.90625 43.796875 -14.90625 Z M 41.8125 -65.53125 C 32.082031 -65.53125 26.609375 -59.859375 25.390625 -48.515625 L 58.390625 -48.515625 C 57.878906 -53.785156 56.15625 -57.9375 53.21875 -60.96875 C 50.28125 -64.007812 46.476562 -65.53125 41.8125 -65.53125 Z M 41.8125 -65.53125 "/></g></g></g><g fill="#ffffff" fill-opacity="1"><g transform="translate(283.833403, 113.09836)"><g><path d="M 80.140625 -3.1875 L 80.140625 0 L 57.171875 0 C 55.953125 -3.550781 55.296875 -6.742188 55.203125 -9.578125 C 51.347656 -5.421875 47.34375 -2.429688 43.1875 -0.609375 C 39.03125 1.210938 34.316406 2.125 29.046875 2.125 C 21.640625 2.125 15.679688 0 11.171875 -4.25 C 6.660156 -8.507812 4.40625 -14.238281 4.40625 -21.4375 C 4.40625 -28.226562 6.253906 -33.878906 9.953125 -38.390625 C 13.660156 -42.898438 20.273438 -45.96875 29.796875 -47.59375 L 45.015625 -49.875 C 48.859375 -50.476562 51.414062 -51.238281 52.6875 -52.15625 C 53.957031 -53.070312 54.59375 -54.59375 54.59375 -56.71875 C 54.59375 -59.757812 53.5 -62.066406 51.3125 -63.640625 C 49.132812 -65.210938 45.5625 -66 40.59375 -66 C 32.59375 -66 28.234375 -62.25 27.515625 -54.75 L 7 -54.75 C 7.8125 -63.96875 10.925781 -70.984375 16.34375 -75.796875 C 21.769531 -80.617188 30.515625 -83.03125 42.578125 -83.03125 C 52.921875 -83.03125 60.976562 -81 66.75 -76.9375 C 72.53125 -72.882812 75.421875 -67.3125 75.421875 -60.21875 L 75.421875 -15.046875 C 75.421875 -11.296875 75.800781 -8.535156 76.5625 -6.765625 C 77.320312 -4.992188 78.515625 -3.800781 80.140625 -3.1875 Z M 54.59375 -29.34375 L 54.59375 -39.390625 C 52.769531 -38.273438 50.789062 -37.382812 48.65625 -36.71875 C 46.53125 -36.0625 43.441406 -35.429688 39.390625 -34.828125 C 34.828125 -34.210938 31.40625 -32.96875 29.125 -31.09375 C 26.84375 -29.21875 25.703125 -26.457031 25.703125 -22.8125 C 25.703125 -19.875 26.613281 -17.515625 28.4375 -15.734375 C 30.257812 -13.960938 32.640625 -13.078125 35.578125 -13.078125 C 38.722656 -13.078125 41.765625 -13.757812 44.703125 -15.125 C 47.640625 -16.5 50.019531 -18.425781 51.84375 -20.90625 C 53.675781 -23.394531 54.59375 -26.207031 54.59375 -29.34375 Z M 54.59375 -29.34375 "/></g></g></g><g fill="#ffffff" fill-opacity="1"><g transform="translate(363.81997, 113.09836)"><g><path d="M 46.984375 -80.890625 L 46.984375 -65.6875 L 33.765625 -65.6875 L 33.765625 -20.53125 C 33.765625 -18.394531 34.34375 -16.972656 35.5 -16.265625 C 36.664062 -15.554688 38.972656 -15.203125 42.421875 -15.203125 C 43.234375 -15.203125 44.753906 -15.304688 46.984375 -15.515625 L 46.984375 0.609375 C 41.304688 0.804688 37.503906 0.90625 35.578125 0.90625 C 29.085938 0.90625 24.171875 0.222656 20.828125 -1.140625 C 17.484375 -2.503906 15.253906 -4.425781 14.140625 -6.90625 C 13.023438 -9.394531 12.46875 -12.671875 12.46875 -16.734375 L 12.46875 -65.6875 L 1.515625 -65.6875 L 1.515625 -80.890625 L 12.46875 -80.890625 L 12.46875 -102.796875 L 33.765625 -102.796875 L 33.765625 -80.890625 Z M 46.984375 -80.890625 "/></g></g></g><g fill="#ffffff" fill-opacity="1"><g transform="translate(409.895867, 113.09836)"><g><path d="M 43.796875 -14.90625 C 46.941406 -14.90625 49.804688 -15.664062 52.390625 -17.1875 C 54.972656 -18.707031 56.671875 -20.882812 57.484375 -23.71875 L 79.375 -23.71875 C 77.039062 -15.507812 72.726562 -9.148438 66.4375 -4.640625 C 60.15625 -0.128906 52.609375 2.125 43.796875 2.125 C 30.410156 2.125 20.347656 -1.570312 13.609375 -8.96875 C 6.867188 -16.375 3.5 -27.375 3.5 -41.96875 C 3.5 -49.976562 4.992188 -57.070312 7.984375 -63.25 C 10.972656 -69.4375 15.351562 -74.28125 21.125 -77.78125 C 26.90625 -81.28125 33.90625 -83.03125 42.125 -83.03125 C 53.675781 -83.03125 62.921875 -79.328125 69.859375 -71.921875 C 76.804688 -64.523438 80.28125 -53.320312 80.28125 -38.3125 L 80.28125 -34.671875 L 24.78125 -34.671875 C 25.488281 -21.492188 31.828125 -14.90625 43.796875 -14.90625 Z M 41.8125 -65.53125 C 32.082031 -65.53125 26.609375 -59.859375 25.390625 -48.515625 L 58.390625 -48.515625 C 57.878906 -53.785156 56.15625 -57.9375 53.21875 -60.96875 C 50.28125 -64.007812 46.476562 -65.53125 41.8125 -65.53125 Z M 41.8125 -65.53125 "/></g></g></g><g fill="#ffffff" fill-opacity="1"><g transform="translate(489.882434, 113.09836)"><g><path d="M 56.71875 -82.71875 L 56.71875 -61.125 C 55.09375 -61.332031 53.164062 -61.4375 50.9375 -61.4375 C 37.65625 -61.4375 31.015625 -55.148438 31.015625 -42.578125 L 31.015625 0 L 9.734375 0 L 9.734375 -80.890625 L 30.109375 -80.890625 L 30.109375 -66.90625 L 30.40625 -66.90625 C 33.445312 -72.882812 36.691406 -77.066406 40.140625 -79.453125 C 43.585938 -81.835938 47.742188 -83.03125 52.609375 -83.03125 C 53.117188 -83.03125 54.488281 -82.925781 56.71875 -82.71875 Z M 56.71875 -82.71875 "/></g></g></g><g fill="#ffffff" fill-opacity="1"><g transform="translate(544.473975, 113.09836)"><g><path d="M 42.875 -21.28125 L 59.453125 -80.890625 L 81.96875 -80.890625 L 53.53125 1.0625 C 50.789062 8.769531 48.253906 15.15625 45.921875 20.21875 C 44.503906 23.164062 42.957031 25.523438 41.28125 27.296875 C 39.613281 29.066406 37.382812 30.382812 34.59375 31.25 C 31.800781 32.113281 28.078125 32.546875 23.421875 32.546875 C 21.691406 32.546875 18.296875 32.441406 13.234375 32.234375 L 13.234375 15.203125 L 18.546875 15.515625 C 22.703125 15.515625 25.640625 14.625 27.359375 12.84375 C 29.085938 11.070312 30.410156 7.90625 31.328125 3.34375 L 1.515625 -80.890625 L 25.25 -80.890625 L 42.578125 -21.28125 Z M 42.875 -21.28125 "/></g></g></g></g></g><g transform="matrix(1, 0, 0, 1, 298, 236)"><g clip-path="url(#78e2a07816)"><g clip-path="url(#c5883a5386)"><g fill="#ffffff" fill-opacity="1"><g transform="translate(0.152503, 35.541683)"><g><path d="M 26.734375 -20.5 L 26.734375 -34.953125 L 31.453125 -34.953125 L 31.453125 0 L 26.734375 0 L 26.734375 -16.3125 L 8.46875 -16.3125 L 8.46875 0 L 3.75 0 L 3.75 -34.953125 L 8.46875 -34.953125 L 8.46875 -20.5 Z M 26.734375 -20.5 "/></g></g></g></g><g fill="#ffffff" fill-opacity="1"><g transform="translate(33.834457, 35.541683)"><g><path d="M 13.578125 0.6875 C 11.117188 0.6875 8.988281 0.0859375 7.1875 -1.109375 C 5.382812 -2.316406 4.019531 -3.929688 3.09375 -5.953125 C 2.164062 -7.984375 1.703125 -10.25 1.703125 -12.75 C 1.703125 -15.320312 2.179688 -17.617188 3.140625 -19.640625 C 4.097656 -21.671875 5.46875 -23.269531 7.25 -24.4375 C 9.039062 -25.601562 11.132812 -26.1875 13.53125 -26.1875 C 16 -26.1875 18.125 -25.585938 19.90625 -24.390625 C 21.695312 -23.191406 23.050781 -21.566406 23.96875 -19.515625 C 24.894531 -17.472656 25.359375 -15.21875 25.359375 -12.75 C 25.359375 -10.25 24.890625 -7.96875 23.953125 -5.90625 C 23.015625 -3.851562 21.660156 -2.238281 19.890625 -1.0625 C 18.117188 0.101562 16.015625 0.6875 13.578125 0.6875 Z M 20.9375 -12.609375 C 20.9375 -15.492188 20.300781 -17.863281 19.03125 -19.71875 C 17.769531 -21.570312 15.921875 -22.5 13.484375 -22.5 C 11.148438 -22.5 9.34375 -21.585938 8.0625 -19.765625 C 6.78125 -17.953125 6.140625 -15.613281 6.140625 -12.75 C 6.140625 -9.957031 6.78125 -7.632812 8.0625 -5.78125 C 9.34375 -3.9375 11.164062 -3.015625 13.53125 -3.015625 C 15.9375 -3.015625 17.769531 -3.9375 19.03125 -5.78125 C 20.300781 -7.632812 20.9375 -9.910156 20.9375 -12.609375 Z M 20.9375 -12.609375 "/></g></g></g><g fill="#ffffff" fill-opacity="1"><g transform="translate(59.436515, 35.541683)"><g><path d="M 21.765625 -18.203125 L 17.625 -18.203125 C 17.625 -19.597656 17.117188 -20.660156 16.109375 -21.390625 C 15.109375 -22.128906 13.648438 -22.5 11.734375 -22.5 C 10.171875 -22.5 8.910156 -22.179688 7.953125 -21.546875 C 7.003906 -20.910156 6.53125 -20.023438 6.53125 -18.890625 C 6.53125 -18.015625 6.8125 -17.34375 7.375 -16.875 C 7.945312 -16.40625 9.0625 -15.972656 10.71875 -15.578125 L 15.625 -14.359375 C 18.09375 -13.742188 19.867188 -12.914062 20.953125 -11.875 C 22.046875 -10.84375 22.59375 -9.445312 22.59375 -7.6875 C 22.59375 -6.03125 22.171875 -4.5625 21.328125 -3.28125 C 20.484375 -2 19.289062 -1.007812 17.75 -0.3125 C 16.207031 0.382812 14.445312 0.734375 12.46875 0.734375 C 5.320312 0.734375 1.6875 -2.234375 1.5625 -8.171875 L 5.703125 -8.171875 C 5.796875 -6.328125 6.414062 -5 7.5625 -4.1875 C 8.71875 -3.375 10.335938 -2.96875 12.421875 -2.96875 C 14.203125 -2.96875 15.628906 -3.320312 16.703125 -4.03125 C 17.773438 -4.75 18.3125 -5.726562 18.3125 -6.96875 C 18.3125 -7.769531 18.070312 -8.398438 17.59375 -8.859375 C 17.125 -9.316406 16.554688 -9.65625 15.890625 -9.875 C 15.222656 -10.101562 14.242188 -10.382812 12.953125 -10.71875 L 8.515625 -11.828125 C 6.597656 -12.285156 5.097656 -12.992188 4.015625 -13.953125 C 2.929688 -14.910156 2.390625 -16.28125 2.390625 -18.0625 C 2.390625 -20.5625 3.28125 -22.539062 5.0625 -24 C 6.84375 -25.457031 9.210938 -26.1875 12.171875 -26.1875 C 15.160156 -26.1875 17.472656 -25.457031 19.109375 -24 C 20.742188 -22.539062 21.628906 -20.609375 21.765625 -18.203125 Z M 21.765625 -18.203125 "/></g></g></g><g fill="#ffffff" fill-opacity="1"><g transform="translate(82.312827, 35.541683)"><g><path d="M 25.171875 -13.578125 C 25.171875 -10.921875 24.753906 -8.507812 23.921875 -6.34375 C 23.097656 -4.1875 21.847656 -2.46875 20.171875 -1.1875 C 18.503906 0.0898438 16.472656 0.734375 14.078125 0.734375 C 12.421875 0.734375 11.019531 0.414062 9.875 -0.21875 C 8.738281 -0.851562 7.847656 -1.671875 7.203125 -2.671875 L 7.109375 -2.671875 L 7.109375 10.078125 L 2.828125 10.078125 L 2.828125 -25.46875 L 6.859375 -25.46875 L 6.859375 -21.859375 L 6.96875 -21.859375 C 8.101562 -23.484375 9.257812 -24.609375 10.4375 -25.234375 C 11.625 -25.867188 13 -26.1875 14.5625 -26.1875 C 16.695312 -26.1875 18.566406 -25.644531 20.171875 -24.5625 C 21.785156 -23.476562 23.019531 -21.984375 23.875 -20.078125 C 24.738281 -18.179688 25.171875 -16.015625 25.171875 -13.578125 Z M 13.875 -2.96875 C 16.019531 -2.96875 17.695312 -3.851562 18.90625 -5.625 C 20.125 -7.394531 20.734375 -9.835938 20.734375 -12.953125 C 20.734375 -16.265625 20.125 -18.65625 18.90625 -20.125 C 17.695312 -21.601562 15.972656 -22.34375 13.734375 -22.34375 C 9.179688 -22.34375 6.90625 -18.722656 6.90625 -11.484375 C 6.90625 -8.828125 7.5625 -6.742188 8.875 -5.234375 C 10.195312 -3.722656 11.863281 -2.96875 13.875 -2.96875 Z M 13.875 -2.96875 "/></g></g></g><g clip-path="url(#f051c4f1cd)"><g fill="#ffffff" fill-opacity="1"><g transform="translate(107.914885, 35.541683)"><g><path d="M 3.265625 -30.09375 L 3.265625 -34.953125 L 7.546875 -34.953125 L 7.546875 -30.09375 Z M 3.265625 0 L 3.265625 -25.46875 L 7.546875 -25.46875 L 7.546875 0 Z M 3.265625 0 "/></g></g></g></g><g fill="#ffffff" fill-opacity="1"><g transform="translate(117.259796, 35.541683)"><g><path d="M 12.515625 -25.46875 L 12.515625 -21.90625 L 8.421875 -21.90625 L 8.421875 -5.265625 C 8.421875 -3.992188 9.21875 -3.359375 10.8125 -3.359375 L 12.515625 -3.359375 L 12.515625 0 C 10.796875 0.226562 9.707031 0.34375 9.25 0.34375 C 7.4375 0.34375 6.128906 -0.09375 5.328125 -0.96875 C 4.535156 -1.84375 4.140625 -3.175781 4.140625 -4.96875 L 4.140625 -21.90625 L 0.6875 -21.90625 L 0.6875 -25.46875 L 4.140625 -25.46875 L 4.140625 -32.578125 L 8.421875 -32.578125 L 8.421875 -25.46875 Z M 12.515625 -25.46875 "/></g></g></g><g fill="#ffffff" fill-opacity="1"><g transform="translate(129.330453, 35.541683)"><g><path d="M 24.390625 -2.921875 C 24.847656 -2.921875 25.316406 -2.984375 25.796875 -3.109375 L 25.796875 0 C 24.828125 0.320312 24.035156 0.484375 23.421875 0.484375 C 22.023438 0.484375 20.941406 0.183594 20.171875 -0.40625 C 19.410156 -1.007812 19 -2.007812 18.9375 -3.40625 C 16.5 -0.644531 13.445312 0.734375 9.78125 0.734375 C 7.414062 0.734375 5.484375 0.0507812 3.984375 -1.3125 C 2.492188 -2.675781 1.75 -4.445312 1.75 -6.625 C 1.75 -8.832031 2.394531 -10.632812 3.6875 -12.03125 C 4.988281 -13.425781 6.910156 -14.285156 9.453125 -14.609375 L 16.546875 -15.484375 C 17.328125 -15.578125 17.894531 -15.847656 18.25 -16.296875 C 18.613281 -16.753906 18.796875 -17.472656 18.796875 -18.453125 C 18.796875 -21.242188 16.800781 -22.640625 12.8125 -22.640625 C 11.050781 -22.640625 9.691406 -22.25 8.734375 -21.46875 C 7.773438 -20.6875 7.1875 -19.4375 6.96875 -17.71875 L 3.015625 -17.71875 C 3.078125 -20.445312 3.96875 -22.539062 5.6875 -24 C 7.414062 -25.457031 9.953125 -26.1875 13.296875 -26.1875 C 16.148438 -26.1875 18.476562 -25.585938 20.28125 -24.390625 C 22.082031 -23.191406 22.984375 -21.40625 22.984375 -19.03125 L 22.984375 -4.328125 C 22.984375 -3.910156 23.09375 -3.570312 23.3125 -3.3125 C 23.539062 -3.050781 23.898438 -2.921875 24.390625 -2.921875 Z M 18.703125 -8.8125 L 18.703125 -13 C 18.304688 -12.675781 17.675781 -12.414062 16.8125 -12.21875 C 15.957031 -12.019531 14.019531 -11.710938 11 -11.296875 C 9.445312 -11.066406 8.253906 -10.625 7.421875 -9.96875 C 6.597656 -9.320312 6.1875 -8.398438 6.1875 -7.203125 C 6.1875 -4.285156 7.726562 -2.828125 10.8125 -2.828125 C 12.144531 -2.828125 13.414062 -3.09375 14.625 -3.625 C 15.84375 -4.164062 16.828125 -4.894531 17.578125 -5.8125 C 18.328125 -6.738281 18.703125 -7.738281 18.703125 -8.8125 Z M 18.703125 -8.8125 "/></g></g></g><g clip-path="url(#2e865d67fd)"><g fill="#ffffff" fill-opacity="1"><g transform="translate(154.932511, 35.541683)"><g><path d="M 3.265625 0 L 3.265625 -34.953125 L 7.546875 -34.953125 L 7.546875 0 Z M 3.265625 0 "/></g></g></g></g><g clip-path="url(#6e7f93b4c8)"><g fill="#ffffff" fill-opacity="1"><g transform="translate(164.277422, 35.541683)"><g><path d="M 3.265625 -30.09375 L 3.265625 -34.953125 L 7.546875 -34.953125 L 7.546875 -30.09375 Z M 3.265625 0 L 3.265625 -25.46875 L 7.546875 -25.46875 L 7.546875 0 Z M 3.265625 0 "/></g></g></g></g><g fill="#ffffff" fill-opacity="1"><g transform="translate(173.622333, 35.541683)"><g><path d="M 12.515625 -25.46875 L 12.515625 -21.90625 L 8.421875 -21.90625 L 8.421875 -5.265625 C 8.421875 -3.992188 9.21875 -3.359375 10.8125 -3.359375 L 12.515625 -3.359375 L 12.515625 0 C 10.796875 0.226562 9.707031 0.34375 9.25 0.34375 C 7.4375 0.34375 6.128906 -0.09375 5.328125 -0.96875 C 4.535156 -1.84375 4.140625 -3.175781 4.140625 -4.96875 L 4.140625 -21.90625 L 0.6875 -21.90625 L 0.6875 -25.46875 L 4.140625 -25.46875 L 4.140625 -32.578125 L 8.421875 -32.578125 L 8.421875 -25.46875 Z M 12.515625 -25.46875 "/></g></g></g><g fill="#ffffff" fill-opacity="1"><g transform="translate(185.69299, 35.541683)"><g><path d="M 12.265625 -4.71875 L 19.078125 -25.46875 L 23.8125 -25.46875 C 22.707031 -22.351562 21.328125 -18.488281 19.671875 -13.875 C 18.015625 -9.269531 16.503906 -5.210938 15.140625 -1.703125 L 12.953125 3.796875 C 12.109375 5.910156 11.335938 7.425781 10.640625 8.34375 C 9.941406 9.269531 9.25 9.847656 8.5625 10.078125 C 7.882812 10.304688 6.847656 10.421875 5.453125 10.421875 C 4.578125 10.421875 3.71875 10.289062 2.875 10.03125 L 2.875 6.140625 C 3.394531 6.296875 3.847656 6.40625 4.234375 6.46875 C 4.617188 6.539062 5.140625 6.578125 5.796875 6.578125 C 6.378906 6.578125 6.859375 6.4375 7.234375 6.15625 C 7.609375 5.882812 7.882812 5.578125 8.0625 5.234375 C 8.238281 4.890625 8.488281 4.328125 8.8125 3.546875 L 9.984375 0.6875 L 0.53125 -25.46875 L 5.40625 -25.46875 L 12.171875 -4.71875 Z M 12.265625 -4.71875 "/></g></g></g><g fill="#ffffff" fill-opacity="1"><g transform="translate(208.569302, 35.541683)"><g/></g></g><g fill="#ffffff" fill-opacity="1"><g transform="translate(220.63996, 35.541683)"><g><path d="M 21.765625 -22.0625 C 23.128906 -23.675781 24.378906 -24.765625 25.515625 -25.328125 C 26.648438 -25.898438 27.929688 -26.1875 29.359375 -26.1875 C 31.796875 -26.1875 33.75 -25.429688 35.21875 -23.921875 C 36.695312 -22.421875 37.4375 -20.382812 37.4375 -17.8125 L 37.4375 0 L 33.15625 0 L 33.15625 -16.359375 C 33.15625 -18.367188 32.789062 -19.867188 32.0625 -20.859375 C 31.332031 -21.847656 30.125 -22.34375 28.4375 -22.34375 C 27.332031 -22.34375 26.320312 -22.023438 25.40625 -21.390625 C 24.5 -20.765625 23.773438 -19.921875 23.234375 -18.859375 C 22.703125 -17.804688 22.4375 -16.648438 22.4375 -15.390625 L 22.4375 0 L 18.15625 0 L 18.15625 -17.625 C 18.15625 -19.082031 17.804688 -20.234375 17.109375 -21.078125 C 16.410156 -21.921875 15.429688 -22.34375 14.171875 -22.34375 C 12.160156 -22.34375 10.535156 -21.585938 9.296875 -20.078125 C 8.066406 -18.566406 7.453125 -16.582031 7.453125 -14.125 L 7.453125 0 L 3.171875 0 L 3.171875 -25.46875 L 7.203125 -25.46875 L 7.203125 -21.859375 L 7.296875 -21.859375 C 9.242188 -24.742188 11.8125 -26.1875 15 -26.1875 C 16.457031 -26.1875 17.773438 -25.851562 18.953125 -25.1875 C 20.140625 -24.53125 21.078125 -23.488281 21.765625 -22.0625 Z M 21.765625 -22.0625 "/></g></g></g><g fill="#ffffff" fill-opacity="1"><g transform="translate(259.724734, 35.541683)"><g><path d="M 24.390625 -2.921875 C 24.847656 -2.921875 25.316406 -2.984375 25.796875 -3.109375 L 25.796875 0 C 24.828125 0.320312 24.035156 0.484375 23.421875 0.484375 C 22.023438 0.484375 20.941406 0.183594 20.171875 -0.40625 C 19.410156 -1.007812 19 -2.007812 18.9375 -3.40625 C 16.5 -0.644531 13.445312 0.734375 9.78125 0.734375 C 7.414062 0.734375 5.484375 0.0507812 3.984375 -1.3125 C 2.492188 -2.675781 1.75 -4.445312 1.75 -6.625 C 1.75 -8.832031 2.394531 -10.632812 3.6875 -12.03125 C 4.988281 -13.425781 6.910156 -14.285156 9.453125 -14.609375 L 16.546875 -15.484375 C 17.328125 -15.578125 17.894531 -15.847656 18.25 -16.296875 C 18.613281 -16.753906 18.796875 -17.472656 18.796875 -18.453125 C 18.796875 -21.242188 16.800781 -22.640625 12.8125 -22.640625 C 11.050781 -22.640625 9.691406 -22.25 8.734375 -21.46875 C 7.773438 -20.6875 7.1875 -19.4375 6.96875 -17.71875 L 3.015625 -17.71875 C 3.078125 -20.445312 3.96875 -22.539062 5.6875 -24 C 7.414062 -25.457031 9.953125 -26.1875 13.296875 -26.1875 C 16.148438 -26.1875 18.476562 -25.585938 20.28125 -24.390625 C 22.082031 -23.191406 22.984375 -21.40625 22.984375 -19.03125 L 22.984375 -4.328125 C 22.984375 -3.910156 23.09375 -3.570312 23.3125 -3.3125 C 23.539062 -3.050781 23.898438 -2.921875 24.390625 -2.921875 Z M 18.703125 -8.8125 L 18.703125 -13 C 18.304688 -12.675781 17.675781 -12.414062 16.8125 -12.21875 C 15.957031 -12.019531 14.019531 -11.710938 11 -11.296875 C 9.445312 -11.066406 8.253906 -10.625 7.421875 -9.96875 C 6.597656 -9.320312 6.1875 -8.398438 6.1875 -7.203125 C 6.1875 -4.285156 7.726562 -2.828125 10.8125 -2.828125 C 12.144531 -2.828125 13.414062 -3.09375 14.625 -3.625 C 15.84375 -4.164062 16.828125 -4.894531 17.578125 -5.8125 C 18.328125 -6.738281 18.703125 -7.738281 18.703125 -8.8125 Z M 18.703125 -8.8125 "/></g></g></g><g clip-path="url(#2c79bb4998)"><g fill="#ffffff" fill-opacity="1"><g transform="translate(285.326792, 35.541683)"><g><path d="M 20.25 0 L 20.25 -3.5 L 20.15625 -3.5 C 18.695312 -0.675781 16.25 0.734375 12.8125 0.734375 C 10.4375 0.734375 8.410156 0.101562 6.734375 -1.15625 C 5.066406 -2.425781 3.8125 -4.132812 2.96875 -6.28125 C 2.125 -8.425781 1.703125 -10.828125 1.703125 -13.484375 C 1.703125 -15.953125 2.140625 -18.148438 3.015625 -20.078125 C 3.890625 -22.015625 5.128906 -23.515625 6.734375 -24.578125 C 8.347656 -25.648438 10.207031 -26.1875 12.3125 -26.1875 C 13.90625 -26.1875 15.3125 -25.851562 16.53125 -25.1875 C 17.75 -24.53125 18.875 -23.421875 19.90625 -21.859375 L 20.015625 -21.859375 L 20.015625 -34.953125 L 24.296875 -34.953125 L 24.296875 0 Z M 13 -2.96875 C 15.007812 -2.96875 16.671875 -3.722656 17.984375 -5.234375 C 19.304688 -6.742188 19.96875 -8.828125 19.96875 -11.484375 C 19.96875 -15.117188 19.394531 -17.835938 18.25 -19.640625 C 17.113281 -21.441406 15.378906 -22.34375 13.046875 -22.34375 C 8.441406 -22.34375 6.140625 -19.273438 6.140625 -13.140625 C 6.140625 -9.898438 6.738281 -7.394531 7.9375 -5.625 C 9.132812 -3.851562 10.820312 -2.96875 13 -2.96875 Z M 13 -2.96875 "/></g></g></g></g><g fill="#ffffff" fill-opacity="1"><g transform="translate(310.92885, 35.541683)"><g><path d="M 13.921875 -2.96875 C 15.023438 -2.96875 16.0625 -3.203125 17.03125 -3.671875 C 18.007812 -4.140625 18.804688 -4.765625 19.421875 -5.546875 C 20.035156 -6.328125 20.394531 -7.140625 20.5 -7.984375 L 24.78125 -7.984375 C 24.164062 -5.253906 22.914062 -3.117188 21.03125 -1.578125 C 19.144531 -0.0351562 16.660156 0.734375 13.578125 0.734375 C 11.117188 0.734375 9.007812 0.179688 7.25 -0.921875 C 5.5 -2.023438 4.175781 -3.539062 3.28125 -5.46875 C 2.394531 -7.40625 1.953125 -9.609375 1.953125 -12.078125 C 1.953125 -16.390625 3.015625 -19.816406 5.140625 -22.359375 C 7.265625 -24.910156 10.273438 -26.1875 14.171875 -26.1875 C 17.671875 -26.1875 20.367188 -24.890625 22.265625 -22.296875 C 24.171875 -19.703125 25.125 -16.050781 25.125 -11.34375 L 6.53125 -11.34375 C 6.53125 -8.613281 7.148438 -6.535156 8.390625 -5.109375 C 9.640625 -3.679688 11.484375 -2.96875 13.921875 -2.96875 Z M 13.578125 -22.34375 C 12.347656 -22.34375 11.195312 -22 10.125 -21.3125 C 9.050781 -20.632812 8.179688 -19.710938 7.515625 -18.546875 C 6.859375 -17.378906 6.53125 -16.113281 6.53125 -14.75 L 20.6875 -14.75 C 20.300781 -19.8125 17.929688 -22.34375 13.578125 -22.34375 Z M 13.578125 -22.34375 "/></g></g></g><g fill="#ffffff" fill-opacity="1"><g transform="translate(336.530908, 35.541683)"><g/></g></g><g fill="#ffffff" fill-opacity="1"><g transform="translate(348.601553, 35.541683)"><g><path d="M 21.765625 -18.203125 L 17.625 -18.203125 C 17.625 -19.597656 17.117188 -20.660156 16.109375 -21.390625 C 15.109375 -22.128906 13.648438 -22.5 11.734375 -22.5 C 10.171875 -22.5 8.910156 -22.179688 7.953125 -21.546875 C 7.003906 -20.910156 6.53125 -20.023438 6.53125 -18.890625 C 6.53125 -18.015625 6.8125 -17.34375 7.375 -16.875 C 7.945312 -16.40625 9.0625 -15.972656 10.71875 -15.578125 L 15.625 -14.359375 C 18.09375 -13.742188 19.867188 -12.914062 20.953125 -11.875 C 22.046875 -10.84375 22.59375 -9.445312 22.59375 -7.6875 C 22.59375 -6.03125 22.171875 -4.5625 21.328125 -3.28125 C 20.484375 -2 19.289062 -1.007812 17.75 -0.3125 C 16.207031 0.382812 14.445312 0.734375 12.46875 0.734375 C 5.320312 0.734375 1.6875 -2.234375 1.5625 -8.171875 L 5.703125 -8.171875 C 5.796875 -6.328125 6.414062 -5 7.5625 -4.1875 C 8.71875 -3.375 10.335938 -2.96875 12.421875 -2.96875 C 14.203125 -2.96875 15.628906 -3.320312 16.703125 -4.03125 C 17.773438 -4.75 18.3125 -5.726562 18.3125 -6.96875 C 18.3125 -7.769531 18.070312 -8.398438 17.59375 -8.859375 C 17.125 -9.316406 16.554688 -9.65625 15.890625 -9.875 C 15.222656 -10.101562 14.242188 -10.382812 12.953125 -10.71875 L 8.515625 -11.828125 C 6.597656 -12.285156 5.097656 -12.992188 4.015625 -13.953125 C 2.929688 -14.910156 2.390625 -16.28125 2.390625 -18.0625 C 2.390625 -20.5625 3.28125 -22.539062 5.0625 -24 C 6.84375 -25.457031 9.210938 -26.1875 12.171875 -26.1875 C 15.160156 -26.1875 17.472656 -25.457031 19.109375 -24 C 20.742188 -22.539062 21.628906 -20.609375 21.765625 -18.203125 Z M 21.765625 -18.203125 "/></g></g></g><g clip-path="url(#35f1fbcf31)"><g fill="#ffffff" fill-opacity="1"><g transform="translate(371.477865, 35.541683)"><g><path d="M 3.265625 -30.09375 L 3.265625 -34.953125 L 7.546875 -34.953125 L 7.546875 -30.09375 Z M 3.265625 0 L 3.265625 -25.46875 L 7.546875 -25.46875 L 7.546875 0 Z M 3.265625 0 "/></g></g></g></g><g fill="#ffffff" fill-opacity="1"><g transform="translate(380.822789, 35.541683)"><g><path d="M 21.765625 -22.0625 C 23.128906 -23.675781 24.378906 -24.765625 25.515625 -25.328125 C 26.648438 -25.898438 27.929688 -26.1875 29.359375 -26.1875 C 31.796875 -26.1875 33.75 -25.429688 35.21875 -23.921875 C 36.695312 -22.421875 37.4375 -20.382812 37.4375 -17.8125 L 37.4375 0 L 33.15625 0 L 33.15625 -16.359375 C 33.15625 -18.367188 32.789062 -19.867188 32.0625 -20.859375 C 31.332031 -21.847656 30.125 -22.34375 28.4375 -22.34375 C 27.332031 -22.34375 26.320312 -22.023438 25.40625 -21.390625 C 24.5 -20.765625 23.773438 -19.921875 23.234375 -18.859375 C 22.703125 -17.804688 22.4375 -16.648438 22.4375 -15.390625 L 22.4375 0 L 18.15625 0 L 18.15625 -17.625 C 18.15625 -19.082031 17.804688 -20.234375 17.109375 -21.078125 C 16.410156 -21.921875 15.429688 -22.34375 14.171875 -22.34375 C 12.160156 -22.34375 10.535156 -21.585938 9.296875 -20.078125 C 8.066406 -18.566406 7.453125 -16.582031 7.453125 -14.125 L 7.453125 0 L 3.171875 0 L 3.171875 -25.46875 L 7.203125 -25.46875 L 7.203125 -21.859375 L 7.296875 -21.859375 C 9.242188 -24.742188 11.8125 -26.1875 15 -26.1875 C 16.457031 -26.1875 17.773438 -25.851562 18.953125 -25.1875 C 20.140625 -24.53125 21.078125 -23.488281 21.765625 -22.0625 Z M 21.765625 -22.0625 "/></g></g></g><g fill="#ffffff" fill-opacity="1"><g transform="translate(419.907563, 35.541683)"><g><path d="M 25.171875 -13.578125 C 25.171875 -10.921875 24.753906 -8.507812 23.921875 -6.34375 C 23.097656 -4.1875 21.847656 -2.46875 20.171875 -1.1875 C 18.503906 0.0898438 16.472656 0.734375 14.078125 0.734375 C 12.421875 0.734375 11.019531 0.414062 9.875 -0.21875 C 8.738281 -0.851562 7.847656 -1.671875 7.203125 -2.671875 L 7.109375 -2.671875 L 7.109375 10.078125 L 2.828125 10.078125 L 2.828125 -25.46875 L 6.859375 -25.46875 L 6.859375 -21.859375 L 6.96875 -21.859375 C 8.101562 -23.484375 9.257812 -24.609375 10.4375 -25.234375 C 11.625 -25.867188 13 -26.1875 14.5625 -26.1875 C 16.695312 -26.1875 18.566406 -25.644531 20.171875 -24.5625 C 21.785156 -23.476562 23.019531 -21.984375 23.875 -20.078125 C 24.738281 -18.179688 25.171875 -16.015625 25.171875 -13.578125 Z M 13.875 -2.96875 C 16.019531 -2.96875 17.695312 -3.851562 18.90625 -5.625 C 20.125 -7.394531 20.734375 -9.835938 20.734375 -12.953125 C 20.734375 -16.265625 20.125 -18.65625 18.90625 -20.125 C 17.695312 -21.601562 15.972656 -22.34375 13.734375 -22.34375 C 9.179688 -22.34375 6.90625 -18.722656 6.90625 -11.484375 C 6.90625 -8.828125 7.5625 -6.742188 8.875 -5.234375 C 10.195312 -3.722656 11.863281 -2.96875 13.875 -2.96875 Z M 13.875 -2.96875 "/></g></g></g><g clip-path="url(#4ca93186db)"><g fill="#ffffff" fill-opacity="1"><g transform="translate(445.509596, 35.541683)"><g><path d="M 3.265625 0 L 3.265625 -34.953125 L 7.546875 -34.953125 L 7.546875 0 Z M 3.265625 0 "/></g></g></g></g><g fill="#ffffff" fill-opacity="1"><g transform="translate(454.854545, 35.541683)"><g><path d="M 13.921875 -2.96875 C 15.023438 -2.96875 16.0625 -3.203125 17.03125 -3.671875 C 18.007812 -4.140625 18.804688 -4.765625 19.421875 -5.546875 C 20.035156 -6.328125 20.394531 -7.140625 20.5 -7.984375 L 24.78125 -7.984375 C 24.164062 -5.253906 22.914062 -3.117188 21.03125 -1.578125 C 19.144531 -0.0351562 16.660156 0.734375 13.578125 0.734375 C 11.117188 0.734375 9.007812 0.179688 7.25 -0.921875 C 5.5 -2.023438 4.175781 -3.539062 3.28125 -5.46875 C 2.394531 -7.40625 1.953125 -9.609375 1.953125 -12.078125 C 1.953125 -16.390625 3.015625 -19.816406 5.140625 -22.359375 C 7.265625 -24.910156 10.273438 -26.1875 14.171875 -26.1875 C 17.671875 -26.1875 20.367188 -24.890625 22.265625 -22.296875 C 24.171875 -19.703125 25.125 -16.050781 25.125 -11.34375 L 6.53125 -11.34375 C 6.53125 -8.613281 7.148438 -6.535156 8.390625 -5.109375 C 9.640625 -3.679688 11.484375 -2.96875 13.921875 -2.96875 Z M 13.578125 -22.34375 C 12.347656 -22.34375 11.195312 -22 10.125 -21.3125 C 9.050781 -20.632812 8.179688 -19.710938 7.515625 -18.546875 C 6.859375 -17.378906 6.53125 -16.113281 6.53125 -14.75 L 20.6875 -14.75 C 20.300781 -19.8125 17.929688 -22.34375 13.578125 -22.34375 Z M 13.578125 -22.34375 "/></g></g></g></g></g></svg>